HIERARCHY
ROOT ui
{
	 OFFSET 0 0 0
	 CHANNELS 3 XPosition YPosition Z Position
	 EndSite
	 {
	 OFFSET 0 -1 0
	 }
}
ROOT li
{
	 OFFSET 0 0 0
	 CHANNELS 3 XPosition YPosition Z Position
	 EndSite
	 {
	 OFFSET 0 -1 0
	 }
}
ROOT ul
{
	 OFFSET 0 0 0
	 CHANNELS 3 XPosition YPosition Z Position
	 EndSite
	 {
	 OFFSET 0 -1 0
	 }
}
ROOT ll
{
	 OFFSET 0 0 0
	 CHANNELS 3 XPosition YPosition Z Position
	 EndSite
	 {
	 OFFSET 0 -1 0
	 }
}
ROOT tt
{
	 OFFSET 0 0 0
	 CHANNELS 3 XPosition YPosition Z Position
	 EndSite
	 {
	 OFFSET 0 -1 0
	 }
}
ROOT tb
{
	 OFFSET 0 0 0
	 CHANNELS 3 XPosition YPosition Z Position
	 EndSite
	 {
	 OFFSET 0 -1 0
	 }
}
ROOT td
{
	 OFFSET 0 0 0
	 CHANNELS 3 XPosition YPosition Z Position
	 EndSite
	 {
	 OFFSET 0 -1 0
	 }
}
ROOT v
{
	 OFFSET 0 0 0
	 CHANNELS 3 XPosition YPosition Z Position
	 EndSite
	 {
	 OFFSET 0 -1 0
	 }
}
ROOT bn
{
	 OFFSET 0 0 0
	 CHANNELS 3 XPosition YPosition Z Position
	 EndSite
	 {
	 OFFSET 0 -1 0
	 }
}
MOTION
Frames: 24
Frame Time: 0.002
-0.003816145896911621	0.002179084062576294	0		0.51750244140625	-2.361400146484375	0		-1.0892586669921875	-0.0344752311706543	0		-0.6333614501953125	-2.342367431640625	0		1.457190185546875	-0.4831214294433594	0		3.337506103515625	-0.1757622833251953	0		4.75710498046875	0.0654097900390625	0		5.66989453125	0.05463460922241211	0		-0.2608979797363281	5.9261904296875	0		
0.007587017059326172	0.011484102249145508	0		0.5507191162109375	-2.35735546875	0		-1.0138821411132812	-0.02778181838989258	0		-0.557230224609375	-2.34670947265625	0		1.45252490234375	-0.4777300720214844	0		3.310206298828125	-0.13723660278320313	0		4.7575439453125	0.07756288146972656	0		5.67794384765625	0.05289178085327149	0		-0.2251949920654297	5.9322578125	0		
-0.0012616870403289796	0.0010262709856033326	0		0.52996875	-2.346716064453125	0		-1.02261669921875	-0.02718671989440918	0		-0.5690333251953125	-2.34110693359375	0		1.4230426025390626	-0.45104388427734377	0		3.3111484375	-0.1669721221923828	0		4.7747392578125	0.07058119964599609	0		5.6717216796875	0.056783119201660154	0		-0.2596684875488281	5.92808642578125	0		
-5.756200104951859E-5	4.918819963932037E-4	0		0.537952880859375	-2.357349853515625	0		-1.0264454345703125	-0.030618515014648438	0		-0.56997412109375	-2.344592529296875	0		1.4201826171875	-0.45560446166992186	0		3.307419189453125	-0.16061395263671874	0		4.7628837890625	0.06395425033569337	0		5.6738701171875	0.025947563171386717	0		-0.23923202514648437	5.92236328125	0		
-0.024912551879882814	2.660219967365265E-4	0		0.5219295043945312	-2.363695068359375	0		-1.0253033447265625	-0.031076181411743165	0		-0.5709551391601563	-2.347048828125	0		1.4213060302734375	-0.4561699523925781	0		3.324416015625	-0.174432373046875	0		4.76794482421875	0.05519927215576172	0		5.67338134765625	0.05409770584106445	0		-0.27187884521484373	5.9172333984375	0		
0.0021615419387817384	-4.803450107574463E-4	0		0.5419957275390626	-2.356388671875	0		-1.0892359619140626	-0.031809511184692385	0		-0.6388618774414062	-2.336758056640625	0		1.3824193115234376	-0.4512681579589844	0		3.317816650390625	-0.14394987487792968	0		4.77308642578125	0.060497528076171876	0		5.67834521484375	0.03549289321899414	0		-0.2554622039794922	5.92661376953125	0		
-0.02070552635192871	0.011342606544494628	0		0.5469688110351563	-2.351884765625	0		-1.0141527099609375	-0.024999414443969727	0		-0.56297802734375	-2.34097412109375	0		1.427392822265625	-0.4532227783203125	0		3.330534912109375	-0.17062796020507812	0		4.769177734375	0.06794857788085938	0		5.68196044921875	0.04643693542480469	0		-0.22018797302246093	5.93182421875	0		
0.0040921010971069335	-0.0013114800453186035	0		0.5707474975585938	-2.3595458984375	0		-1.0172684936523437	-0.029322032928466798	0		-0.5641437377929688	-2.343332275390625	0		1.4283067626953125	-0.4536639404296875	0		3.338661376953125	-0.15220419311523437	0		4.77502099609375	0.059351093292236326	0		5.67550830078125	0.05082787322998047	0		-0.2190773468017578	5.93143359375	0		
-0.021053579330444334	-0.0013913530111312866	0		0.542539306640625	-2.3596083984375	0		-1.021448486328125	-0.032601146697998046	0		-0.5674068603515625	-2.348634033203125	0		1.4220616455078126	-0.4619861450195312	0		3.326381591796875	-0.16451219177246093	0		4.77181103515625	0.05290750885009766	0		5.6761123046875	0.04994838333129883	0		-0.2672366943359375	5.91560888671875	0		
7.793220281600952E-4	0.0030581750869750975	0		0.5432659912109375	-2.3599443359375	0		-1.0206691284179688	-0.03290164184570313	0		-0.6006239624023437	-2.34357763671875	0		1.425874267578125	-0.45837466430664064	0		3.304191650390625	-0.1616627197265625	0		4.76666845703125	0.05954021835327149	0		5.67373583984375	0.031945674896240235	0		-0.2512153472900391	5.92512841796875	0		
-0.019561630249023437	-0.0020015759468078615	0		0.556888671875	-2.3643828125	0		-1.0099801025390625	-0.035277751922607424	0		-0.5510571899414063	-2.353383544921875	0		1.426577392578125	-0.4586893920898438	0		3.347692138671875	-0.18147792053222656	0		4.77229443359375	0.0511079330444336	0		5.67002294921875	0.0452155647277832	0		-0.24941184997558594	5.9228349609375	0		
0.017195045471191408	0.007355854988098144	0		0.5506211547851563	-2.353568359375	0		-1.0802718505859374	-0.029743801116943358	0		-0.629244384765625	-2.33477099609375	0		1.431263671875	-0.45500753784179687	0		3.32764453125	-0.15355693054199218	0		4.76803271484375	0.058833900451660155	0		5.68474072265625	0.04252138900756836	0		-0.248667236328125	5.9225869140625	0		
0.014759060859680175	0.004171020984649658	0		0.5491544189453125	-2.356770751953125	0		-1.0136798095703126	-0.030663782119750977	0		-0.5607801513671875	-2.344718017578125	0		1.424767578125	-0.46316702270507815	0		3.31597900390625	-0.17768582153320311	0		4.7786181640625	0.057446044921875	0		5.67803125	0.04220751953125	0		-0.21490902709960938	5.93001416015625	0		
0.008231721878051757	-0.00293743896484375	0		0.5456348876953125	-2.360917724609375	0		-1.0131318359375	-0.030838024139404296	0		-0.5622887573242188	-2.347875	0		1.42531103515625	-0.4633666687011719	0		3.326600830078125	-0.17101426696777344	0		4.772037109375	0.04528825378417969	0		5.67844384765625	0.046976951599121096	0		-0.263469970703125	5.914365234375	0		
0.008735162734985352	-0.0030922698974609375	0		0.5461189575195312	-2.361076904296875	0		-1.012628662109375	-0.030984462738037108	0		-0.5618046264648437	-2.348025146484375	0		1.4227674560546875	-0.46750027465820315	0		3.332026611328125	-0.17825033569335938	0		4.76560693359375	0.051170063018798825	0		5.67587109375	0.029406164169311525	0		-0.26291790771484375	5.91421240234375	0		
-0.021748922348022462	0.002117577075958252	0		0.5246411743164062	-2.353968505859375	0		-1.08220849609375	-0.034343158721923825	0		-0.6322685546875	-2.33937646484375	0		1.429310791015625	-0.4597022705078125	0		3.331713623046875	-0.15738900756835938	0		4.77606640625	0.05090384292602539	0		5.6761982421875	0.029124975204467773	0		-0.24632374572753907	5.92291259765625	0		
0.019719514846801758	0.0065690698623657225	0		0.553044921875	-2.354377685546875	0		-1.0077095947265624	-0.027246194839477537	0		-0.556900146484375	-2.3432919921875	0		1.42972509765625	-0.45981085205078126	0		3.317901611328125	-0.17835279846191407	0		4.7805478515625	0.0567357177734375	0		5.68233203125	0.05816118240356445	0		-0.21280538940429689	5.9294521484375	0		
-0.016013185501098634	-0.0031175379753112793	0		0.5424774169921875	-2.34833935546875	0		-1.0814183349609374	-0.034515750885009765	0		-0.5585552978515625	-2.345347412109375	0		1.4270543212890625	-0.46386175537109375	0		3.35241455078125	-0.16581375122070313	0		4.77685693359375	0.05068505477905273	0		5.683892578125	0.028547130584716796	0		-0.24647561645507812	5.923744140625	0		
0.010318082809448242	-0.0034603450298309325	0		0.54766357421875	-2.361453857421875	0		-1.0110462036132812	-0.03133594131469727	0		-0.5602598266601563	-2.348384033203125	0		1.42738623046875	-0.4639242553710938	0		3.333606689453125	-0.17867242431640626	0		4.7812548828125	0.05657182312011719	0		5.68412939453125	0.028424381256103515	0		-0.24613078308105468	5.92368505859375	0		
-0.015387480735778808	-0.003220050096511841	0		0.5479537353515626	-2.361497314453125	0		-1.0867379150390626	-0.029549808502197267	0		-0.5619912719726563	-2.350404296875	0		1.4246351318359376	-0.4679359130859375	0		3.338051513671875	-0.16476361083984375	0		4.77748291015625	0.050567317962646484	0		5.6730048828125	0.045939495086669925	0		-0.24583108520507813	5.92364208984375	0		
0.010865796089172363	-0.0035318729877471923	0		0.5611629638671874	-2.36566748046875	0		-0.9945648193359375	-0.03757971572875977	0		-0.6286029663085938	-2.337703369140625	0		1.4215848388671875	-0.495930908203125	0		3.3281435546875	-0.17968411254882813	0		4.77672705078125	0.04954716110229492	0		5.680294921875	0.04050676727294922	0		-0.24360589599609375	5.92059228515625	0		
-0.004794376850128174	0.007626019954681397	0		0.5394592895507813	-2.358444091796875	0		-1.0002909545898437	-0.032530288696289066	0		-0.5524214477539062	-2.341546875	0		1.4628994140625	-0.48739410400390626	0		3.3456337890625	-0.15488700866699218	0		4.78202197265625	0.05647588348388672	0		5.6833662109375	0.054242023468017576	0		-0.24437516784667968	5.92158740234375	0		
0.011270258903503418	-0.0035520761013031004	0		0.5776099853515625	-2.3618623046875	0		-1.0100940551757813	-0.03142593383789063	0		-0.557279052734375	-2.345496826171875	0		1.4313809814453125	-0.46005133056640624	0		3.319559326171875	-0.17860638427734374	0		4.77814208984375	0.05051591110229492	0		5.67767626953125	0.028437738418579103	0		-0.22622412109375	5.91838671875	0		
-0.01153128433227539	7.035189867019653E-4	0		0.550787353515625	-2.35956298828125	0		-1.0049953002929688	-0.03647504425048828	0		-0.5591576538085937	-2.348469482421875	0		1.4531083984375	-0.499283203125	0		3.343787841796875	-0.1718624267578125	0		4.7782958984375	0.050522010803222654	0		5.67066162109375	0.030366933822631836	0		-0.25914596557617187	5.911751953125	0		
